<?xml version="1.0" encoding="UTF-8" standalone="no"?>
<!-- Created with Inkscape (http://www.inkscape.org/) -->

<svg
   width="120"
   height="120"
   viewBox="0 0 120 120"
   version="1.1"
   id="svg5"
   inkscape:version="1.2.2 (b0a8486541, 2022-12-01)"
   sodipodi:docname="close.svg"
   xmlns:inkscape="http://www.inkscape.org/namespaces/inkscape"
   xmlns:sodipodi="http://sodipodi.sourceforge.net/DTD/sodipodi-0.dtd"
   xmlns="http://www.w3.org/2000/svg"
   xmlns:svg="http://www.w3.org/2000/svg">
  <sodipodi:namedview
     id="namedview7"
     pagecolor="#505050"
     bordercolor="#eeeeee"
     borderopacity="1"
     inkscape:showpageshadow="0"
     inkscape:pageopacity="0"
     inkscape:pagecheckerboard="0"
     inkscape:deskcolor="#505050"
     inkscape:document-units="px"
     showgrid="false"
     inkscape:zoom="1.6469695"
     inkscape:cx="4.8574061"
     inkscape:cy="44.020243"
     inkscape:window-width="1366"
     inkscape:window-height="744"
     inkscape:window-x="1024"
     inkscape:window-y="0"
     inkscape:window-maximized="1"
     inkscape:current-layer="layer1" />
  <defs
     id="defs2" />
  <g
     inkscape:label="Capa 1"
     inkscape:groupmode="layer"
     id="layer1">
    <path
       id="rect1162"
       style="fill:#14c8dc;fill-opacity:1;stroke-width:2.93832"
       d="M 8.8886719 -0.13867188 A 9.9617473 9.2605436 80.316441 0 0 2.4804688 2.9785156 A 9.9617473 9.2605436 80.316441 0 0 3.1855469 17.033203 L 46.396484 59.707031 L 3.5800781 101.98828 L 3.6054688 102.01758 A 9.2605436 9.9617473 9.683559 0 0 3.1855469 102.37891 A 9.2605436 9.9617473 9.683559 0 0 2.4804688 116.43359 A 9.2605436 9.9617473 9.683559 0 0 15.587891 116.84961 A 9.2605436 9.9617473 9.683559 0 0 15.957031 116.42969 L 15.982422 116.45898 L 59.923828 73.064453 L 103.86523 116.45898 L 103.89062 116.42969 A 9.9617473 9.2605436 80.316441 0 0 104.26172 116.84961 A 9.9617473 9.2605436 80.316441 0 0 117.36719 116.43359 A 9.9617473 9.2605436 80.316441 0 0 116.66211 102.37891 A 9.9617473 9.2605436 80.316441 0 0 116.24219 102.01758 L 116.26758 101.98828 L 73.451172 59.705078 L 116.66211 17.033203 A 9.2605436 9.9617473 9.683559 0 0 117.36719 2.9785156 A 9.2605436 9.9617473 9.683559 0 0 104.26172 2.5644531 L 59.923828 46.347656 L 15.587891 2.5644531 A 9.9617473 9.2605436 80.316441 0 0 10.34375 -0.0625 A 9.9617473 9.2605436 80.316441 0 0 8.8886719 -0.13867188 z M 10 5 A 5 5 0 0 1 15 10 A 5 5 0 0 1 10 15 A 5 5 0 0 1 5 10 A 5 5 0 0 1 10 5 z M 110 5 A 5 5 0 0 1 115 10 A 5 5 0 0 1 110 15 A 5 5 0 0 1 105 10 A 5 5 0 0 1 110 5 z M 69.583984 48.800781 A 1.7362499 1.8667794 9.7535383 0 1 70.785156 49.384766 A 1.7362499 1.8667794 9.7535383 0 1 70.654297 52.019531 L 62.552734 60.015625 L 70.580078 67.939453 L 70.574219 67.943359 A 1.8667794 1.73625 80.246448 0 1 70.654297 68.011719 A 1.8667794 1.73625 80.246448 0 1 70.785156 70.646484 A 1.8667794 1.73625 80.246448 0 1 68.328125 70.722656 A 1.8667794 1.73625 80.246448 0 1 68.259766 70.644531 L 68.253906 70.650391 L 60.015625 62.519531 L 51.777344 70.650391 L 51.771484 70.644531 A 1.7362499 1.8667794 9.7535383 0 1 51.703125 70.722656 A 1.7362499 1.8667794 9.7535383 0 1 49.246094 70.646484 A 1.7362499 1.8667794 9.7535383 0 1 49.376953 68.011719 A 1.7362499 1.8667794 9.7535383 0 1 49.457031 67.943359 L 49.451172 67.939453 L 57.478516 60.015625 L 49.376953 52.019531 A 1.8667794 1.73625 80.246448 0 1 49.246094 49.384766 A 1.8667794 1.73625 80.246448 0 1 50.71875 48.814453 A 1.8667794 1.73625 80.246448 0 1 51.703125 49.306641 L 60.015625 57.511719 L 68.328125 49.306641 A 1.7362499 1.8667794 9.7535383 0 1 69.583984 48.800781 z M 10 105 A 5 5 0 0 1 15 110 A 5 5 0 0 1 10 115 A 5 5 0 0 1 5 110 A 5 5 0 0 1 10 105 z M 110 105 A 5 5 0 0 1 115 110 A 5 5 0 0 1 110 115 A 5 5 0 0 1 105 110 A 5 5 0 0 1 110 105 z " />
  </g>
</svg>
