<?xml version="1.0" encoding="UTF-8" standalone="no"?>
<!-- Created with Inkscape (http://www.inkscape.org/) -->

<svg
   width="120"
   height="120"
   viewBox="0 0 120 120"
   version="1.1"
   id="svg5"
   inkscape:version="1.2.2 (b0a8486541, 2022-12-01)"
   sodipodi:docname="icono.svg"
   xmlns:inkscape="http://www.inkscape.org/namespaces/inkscape"
   xmlns:sodipodi="http://sodipodi.sourceforge.net/DTD/sodipodi-0.dtd"
   xmlns="http://www.w3.org/2000/svg"
   xmlns:svg="http://www.w3.org/2000/svg">
  <sodipodi:namedview
     id="namedview7"
     pagecolor="#505050"
     bordercolor="#eeeeee"
     borderopacity="1"
     inkscape:showpageshadow="0"
     inkscape:pageopacity="0"
     inkscape:pagecheckerboard="0"
     inkscape:deskcolor="#505050"
     inkscape:document-units="px"
     showgrid="false"
     inkscape:zoom="3.1348401"
     inkscape:cx="26.955123"
     inkscape:cy="50.0823"
     inkscape:window-width="1366"
     inkscape:window-height="717"
     inkscape:window-x="0"
     inkscape:window-y="27"
     inkscape:window-maximized="1"
     inkscape:current-layer="layer1" />
  <defs
     id="defs2" />
  <g
     inkscape:label="Capa 1"
     inkscape:groupmode="layer"
     id="layer1">
    <path
       id="path2111"
       style="fill:#149ddc;fill-opacity:1;stroke:none;stroke-width:5"
       d="M 42.585938 20.085938 L 42.585938 29.527344 C 42.585938 32.297341 40.801935 34.527344 38.585938 34.527344 C 36.36994 34.527344 34.585938 32.297341 34.585938 29.527344 L 34.585938 20.408203 A 40 40 0 0 0 0.20703125 57.107422 L 8.0019531 57.107422 C 10.771944 57.107422 13.001953 58.891428 13.001953 61.107422 C 13.001953 63.323416 10.771944 65.107422 8.0019531 65.107422 L 0.36523438 65.107422 A 40 40 0 0 0 34.34375 99.580078 L 34.34375 91.402344 C 34.34375 88.63235 36.127754 86.402344 38.34375 86.402344 C 40.559746 86.402344 42.34375 88.63235 42.34375 91.402344 L 42.34375 99.908203 A 40 40 0 0 0 80 60 A 40 40 0 0 0 42.585938 20.085938 z M 39.488281 53 C 40.69361 53 41.744629 53.223875 42.640625 53.671875 L 42.064453 54.888672 C 41.712453 54.728672 41.318192 54.583078 40.880859 54.455078 C 40.454196 54.327078 39.984656 54.263672 39.472656 54.263672 C 38.245994 54.263672 37.280168 54.674764 36.576172 55.496094 C 35.872176 56.317423 35.519531 57.441765 35.519531 58.871094 C 35.519531 60.289753 35.845428 61.416051 36.496094 62.248047 C 37.157423 63.069376 38.143082 63.480469 39.455078 63.480469 C 39.956411 63.480469 40.432863 63.436896 40.880859 63.351562 C 41.328859 63.266232 41.764743 63.15925 42.191406 63.03125 L 42.191406 64.279297 C 41.764743 64.439297 41.321947 64.558149 40.863281 64.632812 C 40.415285 64.707479 39.877377 64.744141 39.248047 64.744141 C 38.085384 64.744141 37.1146 64.503434 36.335938 64.023438 C 35.557272 63.543438 34.970835 62.861895 34.576172 61.976562 C 34.192172 61.091233 34 60.050131 34 58.855469 C 34 57.703473 34.207047 56.691069 34.623047 55.816406 C 35.04971 54.931077 35.674764 54.242619 36.496094 53.751953 C 37.317423 53.250623 38.314952 53 39.488281 53 z M 43.136719 53.160156 L 44.640625 53.160156 L 47.216797 60.488281 C 47.387463 60.957614 47.531104 61.40041 47.648438 61.816406 C 47.765768 62.221739 47.86088 62.611042 47.935547 62.984375 C 48.010213 62.611042 48.107276 62.216781 48.224609 61.800781 C 48.341943 61.384785 48.485584 60.935078 48.65625 60.455078 L 51.216797 53.160156 L 52.736328 53.160156 L 48.65625 64.583984 L 47.216797 64.583984 L 43.136719 53.160156 z M 61.792969 55.847656 C 62.230299 55.847656 62.651308 55.896188 63.056641 55.992188 C 63.461971 56.077518 63.792828 56.1845 64.048828 56.3125 L 63.615234 57.480469 C 63.359238 57.384469 63.062036 57.292364 62.720703 57.207031 C 62.37937 57.121698 62.058429 57.080078 61.759766 57.080078 C 60.074437 57.080078 59.232422 58.1628 59.232422 60.328125 C 59.232422 61.362788 59.434511 62.158225 59.839844 62.712891 C 60.25584 63.256887 60.869022 63.527344 61.679688 63.527344 C 62.149017 63.527344 62.560113 63.480766 62.912109 63.384766 C 63.274776 63.288766 63.605631 63.169917 63.904297 63.03125 L 63.904297 64.279297 C 63.616297 64.42863 63.295359 64.540568 62.943359 64.615234 C 62.602029 64.700568 62.185979 64.744141 61.695312 64.744141 C 60.937983 64.744141 60.261395 64.58863 59.664062 64.279297 C 59.077399 63.969964 58.612817 63.490507 58.271484 62.839844 C 57.940821 62.189178 57.775391 61.357079 57.775391 60.34375 C 57.775391 59.287754 57.952688 58.428908 58.304688 57.767578 C 58.656684 57.106248 59.131183 56.621833 59.728516 56.3125 C 60.336512 56.003167 61.024973 55.847656 61.792969 55.847656 z M 69.935547 55.847656 C 70.095547 55.847656 70.265932 55.859526 70.447266 55.880859 C 70.639262 55.891526 70.804696 55.911359 70.943359 55.943359 L 70.767578 57.240234 C 70.628912 57.208234 70.475351 57.18149 70.304688 57.160156 C 70.144688 57.138823 69.989177 57.128906 69.839844 57.128906 C 69.402511 57.128906 68.991418 57.250761 68.607422 57.496094 C 68.223422 57.73076 67.914351 58.066576 67.679688 58.503906 C 67.455688 58.930572 67.34375 59.431816 67.34375 60.007812 L 67.34375 64.583984 L 65.935547 64.583984 L 65.935547 56.007812 L 67.087891 56.007812 L 67.248047 57.576172 L 67.3125 57.576172 C 67.589833 57.106839 67.947433 56.700708 68.384766 56.359375 C 68.822096 56.018042 69.338214 55.847656 69.935547 55.847656 z M 75.535156 55.847656 C 76.271156 55.847656 76.901165 56.008125 77.423828 56.328125 C 77.957161 56.648125 78.363292 57.100837 78.640625 57.6875 C 78.928625 58.263496 79.072266 58.94204 79.072266 59.720703 L 79.072266 60.568359 L 73.199219 60.568359 C 73.220552 61.539022 73.466214 62.280969 73.935547 62.792969 C 74.415543 63.294299 75.082217 63.544922 75.935547 63.544922 C 76.479543 63.544922 76.960957 63.496391 77.376953 63.400391 C 77.803619 63.293724 78.2395 63.143172 78.6875 62.951172 L 78.6875 64.183594 C 78.250167 64.375594 77.819244 64.514276 77.392578 64.599609 C 76.965915 64.695609 76.457757 64.744141 75.871094 64.744141 C 75.060431 64.744141 74.34222 64.578713 73.712891 64.248047 C 73.094225 63.917381 72.607859 63.426054 72.255859 62.775391 C 71.914529 62.114058 71.744141 61.308704 71.744141 60.359375 C 71.744141 59.420712 71.897701 58.615359 72.207031 57.943359 C 72.527031 57.271363 72.969826 56.755244 73.535156 56.392578 C 74.111156 56.029912 74.777827 55.847656 75.535156 55.847656 z M 75.519531 57 C 74.847535 57 74.314585 57.218917 73.919922 57.65625 C 73.535922 58.082916 73.307088 58.679266 73.232422 59.447266 L 77.599609 59.447266 C 77.588943 58.721933 77.418554 58.1355 77.087891 57.6875 C 76.757224 57.228834 76.234197 57 75.519531 57 z " />
    <path
       id="rect2217"
       style="fill:#14c8dc;fill-opacity:1;stroke:none;stroke-width:5"
       d="M 35 40 C 26.690008 40 20 46.690008 20 55 L 20 65 C 20 73.309992 26.690008 80 35 80 L 105 80 C 113.30999 80 120 73.309992 120 65 L 120 55 C 120 46.690008 113.30999 40 105 40 L 35 40 z M 39.488281 53 C 40.693613 53 41.744626 53.223875 42.640625 53.671875 L 42.064453 54.888672 C 41.712453 54.728672 41.318192 54.583078 40.880859 54.455078 C 40.454193 54.327078 39.984656 54.263672 39.472656 54.263672 C 38.245991 54.263672 37.280171 54.674761 36.576172 55.496094 C 35.872173 56.317426 35.519531 57.441762 35.519531 58.871094 C 35.519531 60.289759 35.845428 61.416048 36.496094 62.248047 C 37.157426 63.069379 38.143079 63.480469 39.455078 63.480469 C 39.956411 63.480469 40.43286 63.436896 40.880859 63.351562 C 41.328859 63.266229 41.76474 63.15925 42.191406 63.03125 L 42.191406 64.279297 C 41.76474 64.439297 41.321947 64.558146 40.863281 64.632812 C 40.415282 64.707479 39.87738 64.744141 39.248047 64.744141 C 38.085381 64.744141 37.114603 64.503437 36.335938 64.023438 C 35.557272 63.543438 34.970838 62.861895 34.576172 61.976562 C 34.192172 61.09123 34 60.050134 34 58.855469 C 34 57.70347 34.207047 56.691072 34.623047 55.816406 C 35.049713 54.931074 35.674761 54.242619 36.496094 53.751953 C 37.317426 53.25062 38.314949 53 39.488281 53 z M 43.136719 53.160156 L 44.640625 53.160156 L 47.216797 60.488281 C 47.387463 60.957614 47.531104 61.400407 47.648438 61.816406 C 47.765771 62.221739 47.86088 62.611042 47.935547 62.984375 C 48.010213 62.611042 48.107276 62.216781 48.224609 61.800781 C 48.341943 61.384782 48.485584 60.935078 48.65625 60.455078 L 51.216797 53.160156 L 52.736328 53.160156 L 48.65625 64.583984 L 47.216797 64.583984 L 43.136719 53.160156 z M 90.912109 54.039062 L 91.744141 54.039062 L 91.744141 56.007812 L 94.224609 56.007812 L 94.224609 57.095703 L 91.744141 57.095703 L 91.744141 62.056641 C 91.744141 62.579307 91.865995 62.96861 92.111328 63.224609 C 92.367328 63.469942 92.693224 63.591797 93.087891 63.591797 C 93.301224 63.591797 93.520141 63.576922 93.744141 63.544922 C 93.96814 63.502255 94.148443 63.458682 94.287109 63.416016 L 94.287109 64.488281 C 94.137776 64.562948 93.925771 64.621396 93.648438 64.664062 C 93.371104 64.717396 93.103656 64.744141 92.847656 64.744141 C 92.399657 64.744141 91.983609 64.668864 91.599609 64.519531 C 91.226276 64.359531 90.922166 64.087125 90.6875 63.703125 C 90.452834 63.319125 90.335938 62.781223 90.335938 62.087891 L 90.335938 57.095703 L 89.119141 57.095703 L 89.119141 56.423828 L 90.351562 55.863281 L 90.912109 54.039062 z M 61.792969 55.847656 C 62.230302 55.847656 62.651308 55.896188 63.056641 55.992188 C 63.461974 56.077521 63.792828 56.1845 64.048828 56.3125 L 63.615234 57.480469 C 63.359235 57.384469 63.062036 57.292364 62.720703 57.207031 C 62.37937 57.121698 62.058432 57.080078 61.759766 57.080078 C 60.074434 57.080078 59.232422 58.162794 59.232422 60.328125 C 59.232422 61.362791 59.434511 62.158225 59.839844 62.712891 C 60.255843 63.25689 60.869022 63.527344 61.679688 63.527344 C 62.14902 63.527344 62.56011 63.480766 62.912109 63.384766 C 63.274776 63.288766 63.605631 63.169917 63.904297 63.03125 L 63.904297 64.279297 C 63.616297 64.42863 63.295359 64.540568 62.943359 64.615234 C 62.602026 64.700568 62.185979 64.744141 61.695312 64.744141 C 60.93798 64.744141 60.261395 64.58863 59.664062 64.279297 C 59.077396 63.969964 58.612817 63.49051 58.271484 62.839844 C 57.940818 62.189178 57.775391 61.357082 57.775391 60.34375 C 57.775391 59.287751 57.952688 58.428911 58.304688 57.767578 C 58.656687 57.106245 59.131183 56.621833 59.728516 56.3125 C 60.336515 56.003167 61.02497 55.847656 61.792969 55.847656 z M 69.935547 55.847656 C 70.095547 55.847656 70.265932 55.859526 70.447266 55.880859 C 70.639265 55.891526 70.804693 55.911359 70.943359 55.943359 L 70.767578 57.240234 C 70.628912 57.208234 70.475354 57.18149 70.304688 57.160156 C 70.144688 57.138823 69.989177 57.128906 69.839844 57.128906 C 69.402511 57.128906 68.991421 57.250761 68.607422 57.496094 C 68.223422 57.73076 67.914354 58.066573 67.679688 58.503906 C 67.455688 58.930572 67.34375 59.431813 67.34375 60.007812 L 67.34375 64.583984 L 65.935547 64.583984 L 65.935547 56.007812 L 67.087891 56.007812 L 67.248047 57.576172 L 67.3125 57.576172 C 67.589833 57.106839 67.947433 56.700708 68.384766 56.359375 C 68.822099 56.018042 69.338214 55.847656 69.935547 55.847656 z M 75.535156 55.847656 C 76.271156 55.847656 76.901162 56.008125 77.423828 56.328125 C 77.957161 56.648125 78.363292 57.100834 78.640625 57.6875 C 78.928625 58.263499 79.072266 58.942037 79.072266 59.720703 L 79.072266 60.568359 L 73.199219 60.568359 C 73.220552 61.539025 73.466214 62.280969 73.935547 62.792969 C 74.415546 63.294302 75.082214 63.544922 75.935547 63.544922 C 76.479546 63.544922 76.960954 63.496391 77.376953 63.400391 C 77.803619 63.293724 78.2395 63.143172 78.6875 62.951172 L 78.6875 64.183594 C 78.250167 64.375594 77.819244 64.514276 77.392578 64.599609 C 76.965912 64.695609 76.45776 64.744141 75.871094 64.744141 C 75.060428 64.744141 74.342223 64.578713 73.712891 64.248047 C 73.094225 63.917381 72.607859 63.426057 72.255859 62.775391 C 71.914526 62.114058 71.744141 61.308707 71.744141 60.359375 C 71.744141 59.420709 71.897698 58.615359 72.207031 57.943359 C 72.527031 57.27136 72.969823 56.755244 73.535156 56.392578 C 74.111156 56.029912 74.777824 55.847656 75.535156 55.847656 z M 99.503906 55.847656 C 100.28257 55.847656 100.96607 56.024953 101.55273 56.376953 C 102.15007 56.718286 102.61269 57.219527 102.94336 57.880859 C 103.28469 58.531525 103.45508 59.329964 103.45508 60.279297 C 103.45508 61.697962 103.09252 62.797506 102.36719 63.576172 C 101.65252 64.354838 100.68174 64.744141 99.455078 64.744141 C 98.697746 64.744141 98.021161 64.573755 97.423828 64.232422 C 96.837162 63.880422 96.372583 63.374223 96.03125 62.712891 C 95.689917 62.040891 95.519531 61.228629 95.519531 60.279297 C 95.519531 58.860632 95.877131 57.767999 96.591797 57 C 97.306463 56.232001 98.277241 55.847656 99.503906 55.847656 z M 109.67969 55.847656 C 109.83969 55.847656 110.01007 55.859526 110.19141 55.880859 C 110.38341 55.891526 110.54883 55.911359 110.6875 55.943359 L 110.51172 57.240234 C 110.37305 57.208234 110.21949 57.18149 110.04883 57.160156 C 109.88883 57.138823 109.73332 57.128906 109.58398 57.128906 C 109.14665 57.128906 108.73556 57.250761 108.35156 57.496094 C 107.96756 57.73076 107.65849 58.066573 107.42383 58.503906 C 107.19983 58.930572 107.08789 59.431813 107.08789 60.007812 L 107.08789 64.583984 L 105.67969 64.583984 L 105.67969 56.007812 L 106.83203 56.007812 L 106.99219 57.576172 L 107.05664 57.576172 C 107.33397 57.106839 107.69157 56.700708 108.12891 56.359375 C 108.56624 56.018042 109.08235 55.847656 109.67969 55.847656 z M 84.496094 55.863281 C 85.541426 55.863281 86.315073 56.094068 86.816406 56.552734 C 87.317739 57.011401 87.568359 57.741475 87.568359 58.744141 L 87.568359 64.583984 L 86.544922 64.583984 L 86.271484 63.367188 L 86.207031 63.367188 C 85.833698 63.83652 85.439437 64.184203 85.023438 64.408203 C 84.618105 64.632203 84.053458 64.744141 83.328125 64.744141 C 82.549459 64.744141 81.904578 64.542052 81.392578 64.136719 C 80.880579 63.720719 80.623047 63.073885 80.623047 62.199219 C 80.623047 61.345886 80.960813 60.691088 81.632812 60.232422 C 82.304812 59.763089 83.338996 59.50751 84.736328 59.464844 L 86.191406 59.416016 L 86.191406 58.904297 C 86.191406 58.189631 86.037849 57.693349 85.728516 57.416016 C 85.419183 57.138683 84.981348 57 84.416016 57 C 83.968016 57 83.542052 57.068365 83.136719 57.207031 C 82.731386 57.335031 82.352 57.485584 82 57.65625 L 81.568359 56.599609 C 81.941692 56.396943 82.384485 56.226557 82.896484 56.087891 C 83.408484 55.938557 83.941428 55.863281 84.496094 55.863281 z M 75.519531 57 C 74.847532 57 74.314588 57.218917 73.919922 57.65625 C 73.535922 58.082916 73.307088 58.679266 73.232422 59.447266 L 77.599609 59.447266 C 77.588943 58.721933 77.418557 58.1355 77.087891 57.6875 C 76.757224 57.228834 76.234197 57 75.519531 57 z M 99.472656 57.03125 C 98.59799 57.03125 97.963026 57.320485 97.568359 57.896484 C 97.173693 58.472484 96.976562 59.265965 96.976562 60.279297 C 96.976563 61.292629 97.173693 62.09798 97.568359 62.695312 C 97.973692 63.281979 98.613615 63.576172 99.488281 63.576172 C 100.35228 63.576172 100.98725 63.281979 101.39258 62.695312 C 101.79791 62.09798 102 61.292629 102 60.279297 C 102 59.265965 101.79791 58.472484 101.39258 57.896484 C 100.98725 57.320485 100.34732 57.03125 99.472656 57.03125 z M 86.175781 60.392578 L 84.912109 60.439453 C 83.845444 60.48212 83.1035 60.652506 82.6875 60.951172 C 82.282167 61.249838 82.080078 61.672797 82.080078 62.216797 C 82.080078 62.696796 82.223719 63.047485 82.511719 63.271484 C 82.810385 63.495484 83.189771 63.607422 83.648438 63.607422 C 84.37377 63.607422 84.975079 63.410291 85.455078 63.015625 C 85.935078 62.610292 86.175781 61.992155 86.175781 61.160156 L 86.175781 60.392578 z " />
  </g>
</svg>
