<?xml version="1.0" encoding="UTF-8" standalone="no"?>
<!-- Created with Inkscape (http://www.inkscape.org/) -->

<svg
   width="120"
   height="120"
   viewBox="0 0 120 120"
   version="1.1"
   id="svg5"
   inkscape:version="1.2.2 (b0a8486541, 2022-12-01)"
   sodipodi:docname="min.svg"
   xmlns:inkscape="http://www.inkscape.org/namespaces/inkscape"
   xmlns:sodipodi="http://sodipodi.sourceforge.net/DTD/sodipodi-0.dtd"
   xmlns="http://www.w3.org/2000/svg"
   xmlns:svg="http://www.w3.org/2000/svg">
  <sodipodi:namedview
     id="namedview7"
     pagecolor="#505050"
     bordercolor="#eeeeee"
     borderopacity="1"
     inkscape:showpageshadow="0"
     inkscape:pageopacity="0"
     inkscape:pagecheckerboard="0"
     inkscape:deskcolor="#505050"
     inkscape:document-units="px"
     showgrid="false"
     inkscape:zoom="1.6469695"
     inkscape:cx="4.8574061"
     inkscape:cy="44.020243"
     inkscape:window-width="1366"
     inkscape:window-height="744"
     inkscape:window-x="1024"
     inkscape:window-y="0"
     inkscape:window-maximized="1"
     inkscape:current-layer="layer1" />
  <defs
     id="defs2" />
  <g
     inkscape:label="Capa 1"
     inkscape:groupmode="layer"
     id="layer1">
    <path
       id="rect1312"
       style="fill:#14c8dc;fill-opacity:1;stroke-width:3.17655"
       d="m 112.5,120 a 7.5,7.5 0 0 0 7.5,-7.5 7.5,7.5 0 0 0 -7.5,-7.5 H 15 V 7.5 A 7.5,7.5 0 0 0 7.5,0 7.5,7.5 0 0 0 0,7.5 v 105 a 7.5,7.5 0 0 0 7.5,7.5 z m 0,-2.5 a 5,5 0 0 1 -5,-5 5,5 0 0 1 5,-5 5,5 0 0 1 5,5 5,5 0 0 1 -5,5 z M 30,112.5 H 9 A 1.5,1.5 0 0 1 7.5,111 V 90 A 1.5,1.5 0 0 1 9,88.5 1.5,1.5 0 0 1 10.5,90 v 19.5 H 30 a 1.5,1.5 0 0 1 1.5,1.5 1.5,1.5 0 0 1 -1.5,1.5 z M 7.5,12.5 a 5,5 0 0 1 -5,-5 5,5 0 0 1 5,-5 5,5 0 0 1 5,5 5,5 0 0 1 -5,5 z" />
  </g>
</svg>
