<?xml version="1.0" encoding="UTF-8" standalone="no"?>
<!-- Created with Inkscape (http://www.inkscape.org/) -->

<svg
   width="120"
   height="120"
   viewBox="0 0 120 120"
   version="1.1"
   id="svg5"
   inkscape:version="1.2.2 (b0a8486541, 2022-12-01)"
   sodipodi:docname="ocul.svg"
   xmlns:inkscape="http://www.inkscape.org/namespaces/inkscape"
   xmlns:sodipodi="http://sodipodi.sourceforge.net/DTD/sodipodi-0.dtd"
   xmlns="http://www.w3.org/2000/svg"
   xmlns:svg="http://www.w3.org/2000/svg">
  <sodipodi:namedview
     id="namedview7"
     pagecolor="#505050"
     bordercolor="#eeeeee"
     borderopacity="1"
     inkscape:showpageshadow="0"
     inkscape:pageopacity="0"
     inkscape:pagecheckerboard="0"
     inkscape:deskcolor="#505050"
     inkscape:document-units="px"
     showgrid="false"
     inkscape:zoom="1.6469695"
     inkscape:cx="4.8574061"
     inkscape:cy="44.020243"
     inkscape:window-width="1366"
     inkscape:window-height="744"
     inkscape:window-x="1024"
     inkscape:window-y="0"
     inkscape:window-maximized="1"
     inkscape:current-layer="layer1" />
  <defs
     id="defs2" />
  <g
     inkscape:label="Capa 1"
     inkscape:groupmode="layer"
     id="layer1">
    <path
       id="path2936"
       style="fill:#14c8dc;fill-opacity:1;stroke-width:3.1"
       d="M 7.5,52.5 A 7.5,7.5 0 0 0 0,60 7.5,7.5 0 0 0 7.5,67.5 h 105 A 7.5,7.5 0 0 0 120,60 7.5,7.5 0 0 0 112.5,52.5 Z m 0,2.5 a 5,5 0 0 1 5,5 5,5 0 0 1 -5,5 5,5 0 0 1 -5,-5 5,5 0 0 1 5,-5 z m 105,0 a 5,5 0 0 1 5,5 5,5 0 0 1 -5,5 5,5 0 0 1 -5,-5 5,5 0 0 1 5,-5 z m -63,3.5 h 21 A 1.5,1.5 0 0 1 72,60 1.5,1.5 0 0 1 70.5,61.5 h -21 A 1.5,1.5 0 0 1 48,60 1.5,1.5 0 0 1 49.5,58.5 Z" />
  </g>
</svg>
